<svg xmlns="http://www.w3.org/2000/svg" viewBox="0 0 32 34">
  <path fill="currentColor" d="M16.47 29.82c-.73 0-1.44-.25-1.98-.73-1.73-1.54-6.3-5.1-11.5-5.34a2 2 0 0 1-1.29-.56 2 2 0 0 1-.58-1.26L0 2.03A2 2 0 0 1 .56.58 2 2 0 0 1 2.06 0c5.3.19 10.39 2.13 14.4 5.5A23.8 23.8 0 0 1 30.89 0a2 2 0 0 1 1.5.58 2 2 0 0 1 .56 1.45l-1.1 19.9a2 2 0 0 1-.58 1.26 2 2 0 0 1-1.3.56c-5.23.24-9.78 3.8-11.5 5.34-.55.48-1.26.74-2 .73M3.64 21.3c5.6.45 10.27 3.88 12.57 5.93a.4.4 0 0 0 .52 0c2.34-2.05 7-5.48 12.57-5.93l1.03-18.75c-4.43.3-8.64 1.95-12.03 4.73 1.97 2.18 3.07 4.48 3.04 6.37-.04 1.88-1.33 3.95-4.87 3.95s-4.8-2.03-4.87-3.95c-.06-1.93 1.07-4.2 3.04-6.37A21.2 21.2 0 0 0 2.6 2.54zM16.47 9c-1.5 1.67-2.33 3.33-2.3 4.58 0 .4.03 1.5 2.3 1.5s2.29-1.1 2.3-1.5c.02-1.23-.8-2.9-2.3-4.56z"/>
</svg>